<?xml version="1.0" encoding="UTF-8" standalone="no"?>
<!DOCTYPE svg PUBLIC "-//W3C//DTD SVG 1.1//EN" "http://www.w3.org/Graphics/SVG/1.1/DTD/svg11.dtd">
<svg width="100%" height="100%" viewBox="0 0 768 768" version="1.1" xmlns="http://www.w3.org/2000/svg" xmlns:xlink="http://www.w3.org/1999/xlink" xml:space="preserve" style="fill-rule:evenodd;clip-rule:evenodd;stroke-linejoin:round;stroke-miterlimit:1.41421;">
    <g transform="matrix(2.08696,0,0,2.08696,-417.391,-133.565)">
        <g transform="matrix(1,0,0,1,-16,-38.8513)">
            <circle cx="400" cy="286.851" r="184" style="fill:rgb(185,195,183);"/>
        </g>
        <g transform="matrix(0.958333,0,0,0.958333,0.666667,-28)">
            <circle cx="400" cy="288" r="176" style="fill:rgb(249,249,249);"/>
        </g>
        <g transform="matrix(-1,0,0,0.982292,783.375,-39.2841)">
            <clipPath id="_clip1">
                <ellipse cx="399.375" cy="292.463" rx="168.667" ry="171.707"/>
            </clipPath>
            <g clip-path="url(#_clip1)">
                <g transform="matrix(-1,0,0,1,800,-0.219816)">
                    <g transform="matrix(0.958333,0,0,2.22222,-3.79167,-533.333)">
                        <rect x="280" y="384" width="24" height="72" style="fill:rgb(211,71,73);"/>
                    </g>
                    <g transform="matrix(0.958333,0,0,2.22222,44.125,-533.333)">
                        <rect x="280" y="384" width="24" height="72" style="fill:rgb(211,71,73);"/>
                    </g>
                    <g transform="matrix(0.958333,0,0,2.22222,92.0417,-533.333)">
                        <rect x="280" y="384" width="24" height="72" style="fill:rgb(211,71,73);"/>
                    </g>
                    <g transform="matrix(0.958333,0,0,2.22222,139.667,-533.333)">
                        <rect x="280" y="384" width="24" height="72" style="fill:rgb(211,71,73);"/>
                    </g>
                    <g transform="matrix(0.958333,0,0,2.22222,187.875,-533.333)">
                        <rect x="280" y="384" width="24" height="72" style="fill:rgb(211,71,73);"/>
                    </g>
                    <g transform="matrix(0.958333,0,0,2.22222,235.792,-533.333)">
                        <rect x="280" y="384" width="24" height="72" style="fill:rgb(211,71,73);"/>
                    </g>
                    <g transform="matrix(0.958333,0,0,2.22222,283.708,-533.333)">
                        <rect x="280" y="384" width="24" height="72" style="fill:rgb(211,71,73);"/>
                    </g>
                </g>
                <g transform="matrix(0.9011,0.191535,-0.335634,1.57903,174.069,-310.544)">
                    <path d="M518.235,200.394L141.745,246.062L193.123,384L586.623,384L518.235,200.394Z" style="fill:rgb(4,36,62);"/>
                </g>
            </g>
        </g>
        <g transform="matrix(0.988281,0,0,0.988281,-11.3125,-36.3854)">
            <path d="M410.658,284.761C409.101,286.248 409.091,289.164 408.762,290.94C408.051,294.763 409.158,314.58 410.744,325.765C412.273,336.68 412.59,341.357 411.987,342.503C411.208,344.382 404.676,342.43 404.401,342.413C403.682,343.809 401.216,344.637 399.145,343.385C397.782,342.546 397.495,343.209 396.815,343.036C393.634,342.223 394.898,338.78 392.565,338.008C391.258,337.576 390.467,339.704 389.638,340.051C387.537,340.782 385.952,339.427 384.717,335.736L383.739,332.726L381.419,335.877C378.971,339.225 378.177,339.733 376.607,338.713C375.875,338.192 375.695,337.609 375.798,336.231C375.963,333.823 375.986,333.931 375.022,334.703C373.436,336.002 370.322,337.007 369.063,336.655C367.618,336.229 367.312,335.052 367.943,332.714C368.203,331.811 368.42,330.974 368.408,330.919C368.397,330.865 367.437,331.127 366.273,331.489C365.109,331.851 363.479,332.143 362.689,332.142C361.434,332.072 361.214,331.836 361.101,330.505C360.995,328.946 360.93,328.903 358.283,329.187C355.096,329.586 352.767,328.445 353.297,326.694C353.568,325.845 353.284,325.567 351.786,325.153C349.267,324.449 348.302,323.356 349.074,321.948C349.75,320.617 355.897,314.501 360.425,310.595C366.003,305.787 378.61,291.85 382.02,286.659C382.966,285.27 382.943,285.162 381.914,285.099C381.275,285.01 380.544,284.489 380.267,283.983C379.856,283.11 379.282,283.064 376.693,283.617C373.186,284.367 371.418,284.011 371.108,282.552C370.947,281.795 370.381,281.521 368.825,281.628C367.646,281.654 365.87,281.525 364.807,281.301C363.798,281.064 361.718,280.831 361.626,280.399C361.534,279.967 360.448,279.634 359.031,279.598C357.667,279.551 355.984,279.063 355.318,278.584C354.653,278.105 353.524,277.838 352.823,277.988C351.959,278.173 350.614,276.088 349.597,276.079C346.276,276.111 344.875,275.62 344.002,274.169C343.549,273.362 342.718,272.636 342.198,272.577C341.666,272.465 341.111,270.381 340.082,270.318C338.091,270.236 334.942,268.423 334.439,267.118C334.136,266.223 333.397,265.929 331.243,265.881C327.541,265.712 325.539,264.785 323.713,262.294C322.856,261.178 321.632,260.197 321.004,260.162C320.311,260.084 318.986,259.69 318.05,259.268C315.952,258.418 312.907,254.437 313.544,253.453C313.841,252.994 313.098,252.418 311.543,251.734C308.856,250.501 307.063,248.964 305.572,246.458C304.357,244.458 305.014,243.301 307.329,243.314C308.574,243.331 302.469,239.552 301.452,239.543C300.37,239.492 299.388,238.855 298.388,237.6C298.388,237.6 296.96,236.229 296.873,235.777C296.789,235.34 297.868,234.887 297.868,234.887C298.447,234.424 299.719,234.039 300.952,234.001C302.855,233.933 302.778,233.837 299.324,232.711C295.858,231.531 290.158,228.062 289.928,226.981C289.871,226.711 291.606,226.114 293.764,225.652L297.648,224.822L293.628,223.422C288.403,221.658 283.942,218.714 285.777,218.322C286.1,218.253 299.629,216.885 299.606,216.777C299.594,216.723 297.431,215.83 294.866,214.91C289.672,213.026 282.481,208.915 280.724,206.749C280.12,206.03 279.821,205.416 280.113,205.467C280.352,205.529 283.391,206.291 286.841,207.135C290.292,207.979 293.785,208.757 294.532,208.824L295.973,208.968L294.618,207.901C293.876,207.326 291.867,205.835 290.077,204.579C286.945,202.311 281.699,196.202 281.286,194.257C281.16,193.663 283.307,195.011 286.813,197.708C289.968,200.083 293.001,202.146 293.467,202.216C293.987,202.274 295.253,203.19 295.715,203.769C296.461,204.626 303.957,208.051 303.831,207.457C303.796,207.295 302.11,206.526 300.065,205.663C297.717,204.697 296.474,203.889 296.532,203.368C296.602,202.902 295.664,201.407 294.414,200.036C291.857,197.024 288.772,191.527 287.533,187.555C286.575,184.37 287.215,183.669 288.602,186.479C289.113,187.556 289.923,189.247 290.303,190.239C291.627,193.289 297.004,199.483 300.191,201.739C306.797,207.098 312.365,207.823 317.587,209.305C338.576,224.089 434.322,240.354 475.783,206.986C487.299,203.846 499.045,199.498 503.804,195.882C505.702,194.46 508.094,191.915 509.55,189.739C510.974,187.683 512.43,185.508 512.909,184.841C513.345,184.239 513.719,183.877 513.754,184.039C513.822,184.363 511.766,188.757 510.252,191.453C509.267,193.189 507.697,194.824 507.303,195.36C506.207,196.837 503.592,198.865 502.512,199.096C501.541,199.304 499.909,201.178 500.058,201.88C500.265,202.853 516.048,195.637 518.305,193.516C520.38,191.604 520.595,192.349 518.7,194.844C516.955,197.251 513.673,199.591 508.34,202.369C506.116,203.579 503.871,204.963 503.37,205.522C502.59,206.366 503.53,206.278 511.211,204.467C518.568,202.724 519.832,202.567 519.149,203.334C517.42,205.286 514.771,207.151 511.05,209.02C508.911,210.099 506.709,211.417 506.165,212.042C505.911,212.494 518.502,210.115 516.184,213.007C515.503,214.847 511.102,218.556 507.798,219.997C505.485,221.056 504.895,221.465 505.622,221.705C506.165,221.871 511.602,221.443 511.658,222.504C511.642,222.96 510.608,224.198 509.312,225.266C507.491,226.785 505.833,227.478 501.575,228.671C498.653,229.522 496.919,230.119 497.728,229.946C500.244,229.577 499.418,230.996 495.916,233.101C492.373,235.271 482.278,236.073 483.151,236.734C483.632,237.14 485.269,237.411 486.814,237.25C489.365,237.044 489.561,237.171 489.675,238.503C489.861,240.44 485.394,244.107 481.362,245.308C478.441,246.158 476.867,247.511 479.349,246.981C481.615,246.496 482.288,247.539 481.709,250.656C481.053,253.678 478.973,256.1 476.437,256.642C475.304,256.884 475.069,257.104 475.677,257.313C477.144,257.846 475.97,260.018 473.784,260.881C472.783,261.314 471.399,261.935 470.679,262.365L470.544,262.448C469.824,262.879 468.439,263.499 467.438,263.932C466.286,264.348 465.526,265.019 465.606,265.397C465.813,266.37 464.718,267.056 462.02,267.633C460.347,267.991 459.854,268.322 459.822,269.233C459.809,269.97 459.296,270.475 458.487,270.648C457.839,270.786 457.13,271.164 457.037,271.523C456.932,271.828 455.371,272.444 453.645,272.813C450.947,273.39 450.388,273.679 450.055,274.767C449.745,275.963 449.379,276.098 445.76,276.589C442.693,277.019 441.691,277.346 441.085,278.21C440.425,279.086 439.843,279.266 436.695,279.318C433.678,279.455 432.869,279.628 432.036,280.484C430.485,281.945 423.533,279.526 419.97,280.239C416.588,280.916 412.526,282.977 410.658,284.761Z" style="fill:rgb(249,249,249);"/>
            <path d="M317.909,209.281C319.37,209.673 339.068,216.005 340.897,216.663C343.058,217.275 345.98,218.288 347.459,218.876C348.883,219.475 359.305,221.54 360.788,221.618C362.206,221.654 368.151,221.23 368.598,221.474C369.556,222.003 373.863,222.099 377.666,221.681C380.286,221.424 378.469,220.945 377.872,218.135C377.436,216.082 377.028,215.491 375.35,214.494C374.064,213.752 372.405,213.373 370.902,213.468C369.428,213.578 362.398,214.326 362.398,214.326L363.241,212.451C363.639,211.405 365.333,209.292 366.873,207.777C368.466,206.25 370.955,203.627 372.449,201.896C374.988,198.98 379.123,195.611 380.526,195.311C380.849,195.241 381.459,194.659 381.895,194.057C382.598,193.116 382.964,192.982 383.888,193.349C384.562,193.6 385.914,193.594 386.885,193.386C389.151,192.901 394.59,193.546 397.925,194.641C401.51,195.851 410.15,201.743 409.948,202.916C409.878,203.383 410.366,204.352 411.012,205.005C412.085,206.075 412.12,206.237 411.402,206.842C410.696,207.501 410.808,207.76 412.272,209.876C413.164,211.154 414.545,212.61 415.276,213.131C416.008,213.653 416.58,214.491 416.51,214.958C416.137,217.184 426.061,220.09 432.037,219.546C438.294,218.999 444.819,217.322 449.176,215.26C450.703,214.482 457.986,212.925 458.511,212.474C459.089,212.011 463.671,211.54 465.683,210.658C466.094,209.888 473.35,207.141 475.585,206.961C476.588,206.88 473.531,208.281 473.493,209.168C473.454,210.055 475.749,211.494 475.355,212.284C474.961,213.074 471.565,213.115 471.128,213.908C470.692,214.701 473.658,216.337 472.739,217.041C471.585,217.926 465.448,217.965 464.207,219.217C462.966,220.47 466.293,223.396 465.293,224.557C464.292,225.718 459.277,225.113 458.202,226.184C457.126,227.256 459.562,229.787 458.842,230.989C458.122,232.19 454.832,232.163 453.881,233.394C452.93,234.624 453.886,237.551 453.134,238.373C452.383,239.196 450.093,237.677 449.373,238.329C448.653,238.98 449.651,241.54 448.816,242.283C447.982,243.026 445.329,242.01 444.365,242.789C443.4,243.567 443.929,246.215 443.03,246.954C442.131,247.694 440.009,246.617 438.972,247.227C437.935,247.837 437.932,249.915 436.807,250.615C435.682,251.314 433.219,250.773 432.223,251.424C431.286,252.038 431.717,253.909 430.831,254.523C429.944,255.138 427.996,254.801 426.906,255.111C423.882,255.973 422.412,256.393 419.324,263.452C417.511,267.595 415.334,271.765 414.722,274.838C413.061,283.177 392.819,321.814 388.135,316.245C385.158,312.706 387.768,305.945 384.252,290.07C382.604,282.629 384.54,281.437 382.943,275.508C381.624,270.615 379.851,259.632 378.615,256.446C378.235,255.469 376.435,256.894 375.527,256.394C374.604,255.886 374.235,253.741 373.076,253.4C371.917,253.059 370.003,254.923 368.571,254.348C367.139,253.772 366.032,250.563 364.483,249.945C362.934,249.326 360.652,251.313 359.276,250.635C357.901,249.957 357.376,246.908 356.23,245.878C355.211,244.961 353.128,245.426 352.405,244.455C351.682,243.484 352.634,240.919 351.891,240.049C351.149,239.179 348.866,240.21 347.952,239.234C347.039,238.257 347.445,235.22 346.41,234.189C345.375,233.158 342.65,233.696 341.743,233.048C340.977,232.5 341.752,230.752 340.973,230.3C340.193,229.849 337.746,230.958 337.066,230.339C336.387,229.719 337.694,227.469 336.897,226.582C336.099,225.696 332.927,225.84 332.28,225.018C331.633,224.196 333.716,222.327 333.016,221.651C332.316,220.976 328.739,221.679 328.081,220.964C327.422,220.249 328.205,218.316 327.59,217.257C326.975,216.197 325.86,215.669 324.393,214.607C322.534,213.26 316.092,208.792 317.909,209.281Z" style="fill:rgb(185,195,183);"/>
        </g>
    </g>
</svg>
